<svg xmlns="http://www.w3.org/2000/svg" viewBox="0 0 64 64">
  <rect width="64" height="64" rx="14" fill="#2a2a2d"/>
  <g transform="translate(9,3.5)">
    <path d="M 40 16 C 40 8, 30 3, 20 6 C 11 9, 8 17, 14 23 C 20 29, 32 30, 36 38 C 40 47, 33 56, 22 56 C 13 56, 8 50, 8 44"
          fill="none" stroke="#7e303a" stroke-width="6.5" stroke-linecap="round"/>
    <path d="M 40 16 C 40 21, 34 22, 32 18 C 30.5 14.8, 34 11.5, 37 13.5"
          fill="none" stroke="#a0414e" stroke-width="5" stroke-linecap="round"/>
    <path d="M 8 44 C 8 39, 14 38, 16 42 C 17.5 45.2, 14 48.5, 11 46.5"
          fill="none" stroke="#a0414e" stroke-width="5" stroke-linecap="round"/>
  </g>
</svg>
